<svg xmlns="http://www.w3.org/2000/svg" viewBox="0 0 459.31 439"><defs><style>.cls-1,.cls-4{fill:#ff0080;}.cls-2{fill:#6100ff;}.cls-3{fill:#fff;}.cls-4{stroke:#6100ff;stroke-linejoin:round;stroke-width:7px;}</style></defs><title>Asset 12</title><g id="Layer_2" data-name="Layer 2"><g id="Layer_1-2" data-name="Layer 1"><polygon class="cls-1" points="15.14 326.9 188.19 81.1 445.49 191.09 273.43 435.91 15.14 326.9"/><path class="cls-2" d="M189.07,84.19l252.6,108L272.54,432.83,19,325.81,189.07,84.19M187.31,78l-176,250,263,111,175-249-262-112Z"/><path class="cls-3" d="M22,312c-5.36-8.84-6.91-16.88-4.61-23.91,3.18-9.69,12.92-15,15.93-16.37L275.2,374.09,430.45,153.41l-.74,2.59,2,7-2,7.83,1,7.15-1,8,.89,5.34L270.44,416.92Z"/><path class="cls-2" d="M428.43,160.63l.71,2.46-1.68,6.7-.24,1,.14,1,.91,6.33-.92,7.34-.09.72.12.72.66,4-158.48,223L23.75,310c-4.63-7.9-6-15-4-21.11C22.36,281,30,276.26,33.42,274.47L272.36,375.61l3.72,1.57,2.32-3.3,150-213.25M433.31,145l-159,226-241-102s-33,13-13,45l251,106,162-228-1-6,1-8-1-7,2-8-2-7,2-7-1-4Z"/><path class="cls-1" d="M274.31,376a5.09,5.09,0,0,1-1.94-.39l-263-111a5,5,0,0,1-2.15-7.49l176-250a5,5,0,0,1,6.06-1.72l262,112a5,5,0,0,1,2.12,7.48l-175,249A5,5,0,0,1,274.31,376Z"/><path class="cls-2" d="M187.31,10l262,112-175,249-263-111,176-250m0-10a10,10,0,0,0-8.18,4.24l-176,250a10,10,0,0,0,4.28,15l263,111a10,10,0,0,0,12.07-3.46l175-249a10,10,0,0,0-4.25-14.94l-262-112A9.87,9.87,0,0,0,187.32,0Z"/><path class="cls-1" d="M7.3,324.14c-10.84-30.48-.31-54.46,3.12-61l22.74,8.94C27.72,279.37,16.24,300.55,32,335Z"/><path class="cls-2" d="M11.64,266.29l17.74,7a50.52,50.52,0,0,0-5.95,14c-2.46,9.48-3.42,24,3.87,42.93l-18-7.87a75.86,75.86,0,0,1-2.45-41.92,69.71,69.71,0,0,1,4.79-14.08M9.31,260s-18,28.2-4,66l32,14c-24.11-45.36,0-69,0-69l-28-11Z"/><line class="cls-4" x1="215.2" y1="18.49" x2="32.43" y2="271.51"/></g></g></svg>