<svg xmlns="http://www.w3.org/2000/svg" viewBox="0 0 141.69 141.69"><defs><style>.cls-1{fill:#fff;}.cls-2{fill:none;stroke:#fff;stroke-miterlimit:10;stroke-width:3px;}.cls-3{fill:black;}</style></defs><title>Asset 6</title><g id="Layer_2" data-name="Layer 2"><g id="Layer_1-2" data-name="Layer 1"><path class="cls-1" d="M22.75,80.08V77.85a3.1,3.1,0,0,1,1.69-2.74L46.26,61.7A3.13,3.13,0,0,1,48,61.09a2.59,2.59,0,0,1,1.9.85A2.87,2.87,0,0,1,50.78,64a2.56,2.56,0,0,1-1.22,2.37L29.15,78.94,49.57,91.41a2.75,2.75,0,0,1,1.21,2.44,2.87,2.87,0,0,1-.84,2.09,2.6,2.6,0,0,1-1.9.86,3.27,3.27,0,0,1-1.78-.62L24.43,82.81A3,3,0,0,1,22.75,80.08Z"/><path class="cls-1" d="M81.89,61.26l-22.5,39.61a1.8,1.8,0,0,1-1.68.9,3.09,3.09,0,0,1-2-.78,2.4,2.4,0,0,1-.94-2,4.71,4.71,0,0,1,.66-2.26L77.92,57.19a1.88,1.88,0,0,1,1.74-.93,3.18,3.18,0,0,1,2,.73,2.36,2.36,0,0,1,.93,1.94A4.68,4.68,0,0,1,81.89,61.26Z"/><path class="cls-1" d="M114.15,77.84v2.24a3.07,3.07,0,0,1-1.6,2.74L90.71,96.18a3.34,3.34,0,0,1-1.82.62A2.63,2.63,0,0,1,87,96a2.78,2.78,0,0,1-.85-2.09,2.6,2.6,0,0,1,1.25-2.4l20.39-12.55L87.4,66.48a3,3,0,0,1-.4-4.57,2.63,2.63,0,0,1,1.89-.82,3.51,3.51,0,0,1,1.82.61l21.83,13.4A3.06,3.06,0,0,1,114.15,77.84Z"/><rect class="cls-2" x="1.5" y="1.5" width="138.69" height="138.69" rx="12"/><path class="cls-1" d="M13.08,2.63H127.82A11.38,11.38,0,0,1,139.2,14V27.61a0,0,0,0,1,0,0H1.7a0,0,0,0,1,0,0V14A11.38,11.38,0,0,1,13.08,2.63Z"/><circle class="cls-3" cx="103.23" cy="14.05" r="6.7"/><circle class="cls-3" cx="124.3" cy="14.05" r="6.7"/></g></g></svg>