<svg xmlns="http://www.w3.org/2000/svg" viewBox="0 0 303.71 222.67"><defs><style>.cls-1{fill:#fff;}.cls-2{fill:black;}.cls-3{fill:none;}</style></defs><title>Asset 1</title><g id="Layer_2" data-name="Layer 2"><g id="Layer_1-2" data-name="Layer 1"><path class="cls-1" d="M32.38,148.24,6.81,200.63c-.36.74.7,1.59,1.29,1l60-56.88c-4.83,4.83-31.36,3.35-35.13,3.11A.62.62,0,0,0,32.38,148.24Z"/><path class="cls-1" d="M68.14,144.78l-56.88,60c-.56.59.29,1.65,1,1.29l52.39-25.57a.63.63,0,0,0,.35-.63C64.79,176.14,63.31,149.61,68.14,144.78Z"/><path class="cls-1" d="M73.71,146.84s-5.3,28.06-2.41,27.27C96.11,167.3,188,93.69,210.57,13.88,210.57,13.88,173.24,100.49,73.71,146.84Z"/><path class="cls-1" d="M78.75,134.32l124-124C119.27,57.84,78.75,134.32,78.75,134.32Z"/><path class="cls-1" d="M202.76,10.3l-124,124S155.23,93.8,202.76,10.3Z"/><path class="cls-1" d="M63.32,140.1s-28.06,5.31-27.27,2.42C42.86,117.71,116.47,25.87,196.29,3.25,196.29,3.25,109.68,40.58,63.32,140.1Z"/><polygon class="cls-1" points="11.34 204.91 8.01 201.57 68.14 144.78 11.34 204.91"/><path class="cls-2" d="M49.55,172.85a6.73,6.73,0,1,0-9.49-9.49,7.27,7.27,0,0,0-1.85,7.54L9.4,199.71l3.8,3.8L42,174.7A7.31,7.31,0,0,0,49.55,172.85Z"/><rect class="cls-2" x="3.92" y="199.66" width="5.35" height="13.3" transform="translate(147.82 55.76) rotate(45)"/><path class="cls-1" d="M194.51,222.6a60.73,60.73,0,0,1-9.42-6.79,64.75,64.75,0,0,1-8.1-8.37,50.34,50.34,0,0,1-10.16-21.06,49.53,49.53,0,0,1,.9-23.58,76,76,0,0,1,9.84-21.44,82.59,82.59,0,0,1,15.71-17.71,117.22,117.22,0,0,1,19.48-13.26c13.71-7.58,28.27-13,42-19.3A118.44,118.44,0,0,0,274,80.18c.76-.5,1.43-1.08,2.13-1.64s1.42-1.09,2.06-1.7a48.32,48.32,0,0,0,3.75-3.68,40.35,40.35,0,0,0,6-8.32A47.81,47.81,0,0,0,293.2,45c.47-7-.37-13.85-3.41-19.51a25.67,25.67,0,0,0-6-7.56,36.2,36.2,0,0,0-8.55-5.44c-6.33-3-13.57-4.5-20.9-5.46a148.5,148.5,0,0,0-22.47-.8c-3.79.1-7.58.36-11.38.68q-2.85.24-5.69.58c-1.89.21-3.81.43-5.66.77h0a.51.51,0,0,1-.59-.4.52.52,0,0,1,.32-.56A103.24,103.24,0,0,1,220.05,4c3.76-.92,7.57-1.66,11.41-2.31A126.92,126.92,0,0,1,254.9.05a82,82,0,0,1,11.94,1.14A63.23,63.23,0,0,1,278.72,4.4a43.1,43.1,0,0,1,11.13,6.29,35.55,35.55,0,0,1,8.68,10A39.08,39.08,0,0,1,303,33a52.54,52.54,0,0,1,.62,12.66,55.48,55.48,0,0,1-.71,6.17l-.6,3.09L302,56.5,301.52,58l-.93,3c-.32,1-.79,2-1.19,3a46.37,46.37,0,0,1-2.86,5.73,49.7,49.7,0,0,1-7.86,9.92A56.88,56.88,0,0,1,284,83.84c-.78.67-1.64,1.23-2.46,1.85s-1.63,1.24-2.49,1.76a126.77,126.77,0,0,1-21.1,11c-14.32,6.07-28.79,10.88-42.17,17.73a111,111,0,0,0-18.87,12,76.88,76.88,0,0,0-15.22,16.08,71.26,71.26,0,0,0-10.11,19.77,46.13,46.13,0,0,0-1.76,21.87,47.91,47.91,0,0,0,8.82,20.35A63.9,63.9,0,0,0,195,221.73l0,0a.5.5,0,0,1-.52.85Z"/><line class="cls-3" x1="213.44" y1="19.17" x2="89.43" y2="143.18"/></g></g></svg>