<svg xmlns="http://www.w3.org/2000/svg" viewBox="0 0 774 671.46"><defs><style>.cls-1{fill:#ff2643;}.cls-2{fill:#ff2643;}.cls-3{fill:#ff2643;}</style></defs><title>Asset 4</title><g id="Layer_2" data-name="Layer 2"><g id="Layer_1-2" data-name="Layer 1"><path class="cls-1" d="M217.34,204.79H169.78l-54.54-65.1-54.55,65.1h-48l79.77-91.14L20.4,31.42H67.82L115,87.5l47.42-56.08H209.8l-72.23,82.23Z"/><path class="cls-1" d="M297.39,173.17q-18.56,9.35-42.9,9.34a78.21,78.21,0,0,1-21.32-2.77,54.42,54.42,0,0,1-17-7.9,39.16,39.16,0,0,1-11.35-12.28,31,31,0,0,1-4.15-15.8q0-45.9,90.79-45.9h5.95a51.93,51.93,0,0,0-1-9.11,12.63,12.63,0,0,0-3.67-6.63,18.32,18.32,0,0,0-8.23-4.1A61,61,0,0,0,270,76.64q-27,0-28.1,20H204.11q3.18-46.47,67.4-46.48a143.91,143.91,0,0,1,26.36,2.2A52,52,0,0,1,317.73,60a36.14,36.14,0,0,1,12.59,15.11q4.44,9.57,4.43,24.22v80.38H297.39Zm0-49.82H286.45q-47.74,0-47.74,19.37,0,6.47,6.3,9.86t16.67,3.4a61.79,61.79,0,0,0,10.38-.86,58.31,58.31,0,0,0,9.83-2.54,41.3,41.3,0,0,0,8.65-4.21,31.77,31.77,0,0,0,6.85-5.88Z"/><path class="cls-1" d="M498.78,179.06h-37V53.66h37Z"/><path class="cls-2" d="M485.05,125.08,374.81,177.14l-30.44-19-1.53-121.9,39.45,24.65-2.69,74.44,65.86-35Z"/><path class="cls-1" d="M589.75,179.46a97.68,97.68,0,0,1-30.09-4.4,67.15,67.15,0,0,1-23.43-12.79,56.52,56.52,0,0,1-15.15-20.61,68.68,68.68,0,0,1-5.34-27.75A68.73,68.73,0,0,1,521,86.55a58,58,0,0,1,14.59-20.61,65.43,65.43,0,0,1,22.48-13,87.31,87.31,0,0,1,29-4.57,92,92,0,0,1,29.61,4.45,63.62,63.62,0,0,1,22.47,12.85A55.58,55.58,0,0,1,653.4,86.27a72.28,72.28,0,0,1,5,27.64v9.93H554.8a40.46,40.46,0,0,0,4.52,12.91,32.25,32.25,0,0,0,7.67,9.13,31.17,31.17,0,0,0,10.35,5.49,41.21,41.21,0,0,0,12.41,1.82,36.47,36.47,0,0,0,9.86-1.37,30.15,30.15,0,0,0,8.91-4A23.14,23.14,0,0,0,615,141.2a17,17,0,0,0,2.67-9h39.2A52.55,52.55,0,0,1,649,152.39a54,54,0,0,1-14.73,14.79A67.77,67.77,0,0,1,614,176.32,90.92,90.92,0,0,1,589.75,179.46Zm28.64-81.77Q614.82,86,606.67,80.33T587,74.62a33.63,33.63,0,0,0-19.46,5.71Q559.19,86,555.62,97.69Z"/><path class="cls-1" d="M753,84.38q-6.3-1.59-11.58-2.51a56.8,56.8,0,0,0-9.66-.92,29.87,29.87,0,0,0-13.7,3.2,45,45,0,0,0-12.48,9.94v85h-37V53.66h37v7.19a49.33,49.33,0,0,1,30-10.16,66.45,66.45,0,0,1,6.85.51c3,.35,6.53.78,10.55,1.32Z"/><path class="cls-1" d="M502.94,22.16A21.56,21.56,0,0,1,496.5,38a21.56,21.56,0,0,1-15.84,6.44,21.25,21.25,0,0,1-15.72-6.5,21.58,21.58,0,0,1-6.44-15.78,21.38,21.38,0,0,1,6.44-15.72,22.47,22.47,0,0,1,31.49,0A21.29,21.29,0,0,1,502.94,22.16Z"/><path class="cls-1" d="M27.75,458.28h79.77q10.68,0,20.9,1a122.28,122.28,0,0,1,19.32,3.37,83.38,83.38,0,0,1,16.72,6.29,46.9,46.9,0,0,1,13.09,9.76,42.55,42.55,0,0,1,8.56,13.88,51.13,51.13,0,0,1,3.09,18.5q0,27.63-20.08,41.51T109.3,566.44H66.54v65.21H27.75Zm38.79,78.47H110a86.53,86.53,0,0,0,18.23-1.66,35.45,35.45,0,0,0,12.27-4.85,19.51,19.51,0,0,0,6.92-7.89,25.31,25.31,0,0,0,2.19-10.84q0-7.42-3.29-12a22,22,0,0,0-8.84-7.13A42,42,0,0,0,124.58,489a133.23,133.23,0,0,0-15.42-.86H66.54Z"/><path class="cls-1" d="M286.81,618.13q-18.36,9.24-42.48,9.25a77.9,77.9,0,0,1-21.11-2.74,54,54,0,0,1-16.86-7.83,38.82,38.82,0,0,1-11.23-12.16A30.62,30.62,0,0,1,191,589q0-45.45,89.9-45.45h5.89a50.32,50.32,0,0,0-1-9,12.41,12.41,0,0,0-3.63-6.56,18.17,18.17,0,0,0-8.15-4.06,60.45,60.45,0,0,0-14.39-1.37q-26.73,0-27.82,19.76H194.44q3.15-46,66.74-46a142.19,142.19,0,0,1,26.11,2.17A51.39,51.39,0,0,1,307,506.09a35.72,35.72,0,0,1,12.47,15q4.38,9.48,4.39,24v79.61h-37Zm0-49.34H276q-47.3,0-47.29,19.18,0,6.4,6.24,9.77t16.51,3.37a61.74,61.74,0,0,0,10.28-.86,57.82,57.82,0,0,0,9.73-2.51,41,41,0,0,0,8.57-4.17,31.64,31.64,0,0,0,6.78-5.82Z"/><path class="cls-1" d="M470.65,610.7q0,60.76-66.6,60.76a101.83,101.83,0,0,1-26.11-3.08,60.57,60.57,0,0,1-19.74-8.91,42.27,42.27,0,0,1-12.54-13.59,33,33,0,0,1-4.38-16.45h38.23q0,15.87,23.85,15.88a51.8,51.8,0,0,0,12-1.26,22.18,22.18,0,0,0,9-4.34,21.62,21.62,0,0,0,6-8.34,42.87,42.87,0,0,0,2.94-13.13,62.07,62.07,0,0,1-33,9.14q-15.48,0-27.34-4.63a53.19,53.19,0,0,1-32.13-33.46,80.93,80.93,0,0,1-4.12-26.56,73.18,73.18,0,0,1,5-27.75,61.75,61.75,0,0,1,13.7-21A59.07,59.07,0,0,1,376,500.83a70.56,70.56,0,0,1,25.56-4.56q18,0,32.07,6.73v-3.77h37Zm-37-77q-14-11.19-30.43-11.2-13,0-20.69,10t-7.68,30.2q0,19.2,7.2,28.78t20.21,9.6q16.46,0,31.39-16.33Z"/><path class="cls-1" d="M555.53,627.38a97.66,97.66,0,0,1-30.08-4.4A67.45,67.45,0,0,1,502,610.19a56.61,56.61,0,0,1-15.14-20.62,74.52,74.52,0,0,1-.14-55.1,58.13,58.13,0,0,1,14.6-20.62,65.48,65.48,0,0,1,22.47-13,87.67,87.67,0,0,1,29-4.56,92,92,0,0,1,29.6,4.45,63.6,63.6,0,0,1,22.48,12.85,55.78,55.78,0,0,1,14.32,20.61,72.32,72.32,0,0,1,5,27.64v9.94H520.58a40.08,40.08,0,0,0,4.53,12.9,32.3,32.3,0,0,0,7.67,9.14,31.05,31.05,0,0,0,10.35,5.48,41.14,41.14,0,0,0,12.4,1.83,36.89,36.89,0,0,0,9.87-1.37,30.54,30.54,0,0,0,8.91-4.06,23.23,23.23,0,0,0,6.51-6.56,17,17,0,0,0,2.67-9h39.2a52.85,52.85,0,0,1-8,20.22A54.17,54.17,0,0,1,600,615.1a68,68,0,0,1-20.21,9.14A91,91,0,0,1,555.53,627.38Zm28.64-81.78q-3.55-11.64-11.71-17.36t-19.67-5.71a33.7,33.7,0,0,0-19.46,5.71Q525,534,521.41,545.6Z"/><path class="cls-1" d="M699.65,627.38q-62.62,0-66.47-47.29h38q.27,21,28.23,21,12.2,0,18.57-3.77t6.37-9.48a6.75,6.75,0,0,0-1.37-4.34,12.74,12.74,0,0,0-5.21-3.25,79.43,79.43,0,0,0-10.76-3.2q-6.91-1.67-18-3.94-13.56-2.75-23.3-5.54a59.49,59.49,0,0,1-16.1-7,26,26,0,0,1-9.39-10.28q-3-6.11-3-15.59a29.64,29.64,0,0,1,4.11-15.24,37.9,37.9,0,0,1,11.65-12.17,61.31,61.31,0,0,1,18.23-8.11,89.37,89.37,0,0,1,23.84-3q60.72,0,62,42.48H720.35q-1.38-16.21-23.58-16.22a55,55,0,0,0-9,.69,30.33,30.33,0,0,0-7.2,2,13.72,13.72,0,0,0-4.73,3.19,6.36,6.36,0,0,0-1.71,4.4,6.22,6.22,0,0,0,.89,3.43c.6.91,2,1.81,4.25,2.68a77.43,77.43,0,0,0,9.94,2.86q6.57,1.53,18,3.82,13.84,3,24,5.94a63.12,63.12,0,0,1,16.93,7.37,28.46,28.46,0,0,1,10,10.79q3.3,6.4,3.29,16.1a32.48,32.48,0,0,1-4.38,16.51,40.78,40.78,0,0,1-12.41,13.13,64.52,64.52,0,0,1-19.46,8.74A95,95,0,0,1,699.65,627.38Z"/><path class="cls-2" d="M348.5,351.11s-38.46-.86-28.57-17.38,74-7.1,100.73,15.66,29.7,59.69,19.76,81.55-21.43-6.11-19.18-12.89S421,345.27,348.5,351.11Z"/><path class="cls-3" d="M235.18,288.94s-169.27.16-45.53-31c0,0,65.57-2.26,78.72-5.1S213.76,240.29,212,237s-26.35-4.64-22.51-6.27c0,0-40.59,1-39.05,7.54,0,0-.43-6.27,30.08-16.26s268.29-12.41,268.29-12.41L774,246.27s-265.28,4.06-240.82,42.62c0,0-186.52-42.19-135,7.93,0,0-55.05-30.53-165.67-22.27C232.51,274.55,170.87,280.71,235.18,288.94Z"/><path class="cls-2" d="M718.12,295.48s-24.76,4.56-38.19,8.18c-5.18,1.4-45.08-4.3-51.34-4.58s-16.06,10.48-3.55,10.85,49.55-2.48,59.24,3.5,36.34,4.71,36.34,4.71-12.13-2.5-12.18-5.22,21.21-2.36,29-6.58c0,0-20.06-3.06-26.74-3.77S718.12,295.48,718.12,295.48Z"/><path class="cls-2" d="M426.94,354.15S405.18,347.32,400,358s36.25,17.83,65.63,10.73,54.85-26.27,63.45-39.83-16.24-3.74-19.37.31S463.16,371,426.94,354.15Z"/><path class="cls-2" d="M534.24,327s-17.34,13.45-25.79,8.62S535.08,309,564.2,301.44s58.88-5.57,71.42-.29S622.2,310.31,618,309,561.17,301,534.24,327Z"/><path class="cls-2" d="M352.25,302.25s-28.72-12.65-62.05-39.16-126.45-9.53-160.82,6.38c-17.72,8.21-48.18,24.46-75.1,40.29l27,19.64,1.78-.86a52.73,52.73,0,0,1,44.34-1.07c17.6,7.79,20.07,19,33.62,25.8,25.22,12.59,67.48-13.57,102.54-28a64,64,0,0,1,42.37-2.5l.53.16s20.35,22.73,25.88,24.17l86.17,11.6c-14.7-28.17-23.17-33.53-23.17-33.53C391.8,322.46,385.28,310.6,352.25,302.25Z"/><path class="cls-2" d="M27.48,332.07s1.74,2.6,2.36,2.82c0,0-.79-1.87-.17-2.92S27.17,331.61,27.48,332.07Z"/><path class="cls-3" d="M21.67,359.14s4.93-7.21,9.26-9.31,4.34-3.91,4.91-5.22,4.54-3.43,4.54-3.43.88,2.36.5,2.84-8.79,11.21-12.68,12.65S21.67,359.14,21.67,359.14Z"/><path class="cls-2" d="M24.78,355.39s-3.09-1.06-3.7-5.36c0,0,2.35,3.1,5.44,3.45C28.11,353.66,26.57,356.63,24.78,355.39Z"/><path class="cls-2" d="M22.48,359s-3.65-.39-6.08-8.79c0,0,4.75,5.85,7.84,5.47C24.24,355.63,25,357.75,22.48,359Z"/><path class="cls-2" d="M26.58,352.84s-2.52-3.64-2.64-5.13c0,0,2.6,3.32,4.69,3.56S28.76,354.49,26.58,352.84Z"/><path class="cls-2" d="M29.59,350.63S27.34,350,26.87,346c0,0,1.9,3.25,4.5,3.33S30.64,352.28,29.59,350.63Z"/><path class="cls-2" d="M32.44,348.58s-3.33-3-4.11-5.61c0,0,3.72,3.21,5.87,3.34S33.88,349.36,32.44,348.58Z"/><path class="cls-2" d="M36,345.08s-2.65-3.08-2.43-4.77c0,0,2.67,3,4.13,2.9S38.17,345.9,36,345.08Z"/><path class="cls-2" d="M62,350.71c-1.13-1.86,2.34,9.58,1.08,7.28s-4.49-4.52-5.32-5.11-.62,2.58-.62,2.58,1,9.67,1.07,9.1-2.12-3.22-2.12-3.22.61,4.79.16,3.81-3.3-2.38-3.3-2.38-1.62,1.42,2.18,5.59,6.45,12,4.35,10.54S48.14,373.62,46.14,373,40,367.1,40,367.78s-1.5,3.86-1.5,3.86c1.09,3.73-3.14,20.45-3.65,18.15s-2.09-10.42-4.23-13.55-1.76-11.19-2.43-10.17a68.28,68.28,0,0,0-2.59,6.33c-1-2.37-2.73-13-2.73-13s11.36,5.11,19.86-4.7,25.1-14.6,25.1-14.6c13.28-8.68,6.82-22.92,6.82-22.92s4.45-8.84,10.39-10.83a35.76,35.76,0,0,0,8.63-3.88s-5.47,8.1-7.3,8.54,8.89-5,13.2-3.94c0,0-9,5.13-9.2,6.69s11,.06,11,.06-8.27,3.69-8.33,5.67c0,0,9.79-1.39,13.62-.8S96,321.51,95,324.29c0,0,7.83-2.31,10.65-.67,0,0-8.67,4.47-8.45,4.65s5.72,5.93,11,5.48-.6,4.88-11.41,2.7-5.42.82-5.42.82,6.28,7.64,7.8,9.59-10.55-2.93-11.9-2.73c0,0,1.49,5.42.74,7.45s-7.88-9.1-7.88-9.1-3,3.69-.44,7-3.32-.72-4.23-7.55c0,0-.58,8.45-.55,9.94s-2.06-5-2.25-3-.62,8.34.5,11.78S68,360.64,62,350.71Z"/><path class="cls-3" d="M5.72,334.37s.07,4.94.82,6.24c.65,1.13,9.43-6.21,11.8-8.82a10.92,10.92,0,0,0,1.38.32c2.3.06,7.43-.09,7.51-.18s-8.06-1.52-8.06-1.58C19.19,329.6,5.59,331.72,5.72,334.37Z"/><path class="cls-3" d="M39.36,345.65a39.77,39.77,0,0,0-5.89-14.43s.56-2.14,2.61-.61,4.79,8.64,5.61,12.19S39.47,346.28,39.36,345.65Z"/><path class="cls-3" d="M34,330.14l6.52-.27a9.44,9.44,0,0,1,4.1,7c.25,4.55-4.7,7.79-4.7,7.79S37.41,332.68,34,330.14Z"/><path class="cls-3" d="M36.44,328.84s6.83,9.08,7.84,13.91,9-11.43,9-11.43S38.34,326.42,36.44,328.84Z"/><path class="cls-2" d="M13.65,335.84s.84,4.34,2.24,5.5c0,0-2.77-.32-4.4-3.78S13.65,335.84,13.65,335.84Z"/><path class="cls-2" d="M19.08,338.76c-3-.28-5.85-4-5.85-4s-.26-1.37.31-1.56a7.6,7.6,0,0,1,2.58.54s1.12,3.46,2.85,4.72"/><path class="cls-2" d="M17.28,334.4a9.44,9.44,0,0,0,5.19,2.74s-4.28-3.12-4.21-5.32a4.78,4.78,0,0,0-1.53.36S16.25,333.74,17.28,334.4Z"/><path class="cls-2" d="M24.09,332s3.06,3,4.08,3.3c0,0-1.55-2.28-1.46-3.12S23.83,331.17,24.09,332Z"/><path class="cls-2" d="M22.39,332.25s.69,4,2.45,4.42a6.23,6.23,0,0,1-4.94-4.6A2,2,0,0,1,22.39,332.25Z"/><path class="cls-2" d="M8.76,337.78s2.22,0,2,.68,1,5.27,2,5.83a12.25,12.25,0,0,1-5.57-5.05A2.07,2.07,0,0,1,8.76,337.78Z"/><path class="cls-2" d="M54.06,298.4S64.69,283,66.61,279.76s4.5-12.76,5.33-14.43,9.3-26.89,19-31.77,21-5.31,35.12,6.51c0,0-23.59-12.09-34.15,6.17,0,0-3.35,17.16-6,20.21,0,0,9.94-2.58,14.2-7.46,0,0,1.64,6.92-7.35,11.3s-9.81,3.7-14.86,9.83a60.5,60.5,0,0,1-2.4,7.33s2.68-4.62,11.45-5,22.75-15.26,22-19.58c0,0,8.07,17.66-23.36,29.25,0,0-15.46,5.8-17.1,12S51.06,305.23,54.06,298.4Z"/><path class="cls-2" d="M59.11,314.23a79.23,79.23,0,0,1,42.55-20.45s-16.9,6.94-19.7,14.09-8.78,12.3-14.63,10.92"/><path class="cls-2" d="M93.06,275.58s-25.84-4.78-33.17,9.34S42.18,298.7,42.18,298.7s-1.17-1.45-12.78,9-21.53,4.85-21.53,4.85c-13.2,15.22-5.81,27.64-5.81,27.64s2.28-11.71,23-8.56c0,0,7.16,1.29,12.46-.26,0,0,11.7-.13,14.86.47,0,0-9.27,5.31-10.14,8.85s-13.52,16.5-16.13,16.43l-4.66,1.75c6.4,6.82,19.6,2.47,21.51-2s36-21.95,36-21.95c3.33-15.8-3.39-19.41-3.39-19.41s-4.42,7.29-7.54-8.11S93.06,275.58,93.06,275.58ZM10.71,325.22c.64,1.92-2.18,4.89-3.7,4.68s-4.7-2,4.87-10.62C11.88,319.28,10.07,323.3,10.71,325.22Zm32-5.58c-2,2.81-5.5,1.3-5.5,1.3s-1.37-5.74,8.32-6.82A21.66,21.66,0,0,1,42.68,319.64Z"/><path class="cls-2" d="M48.75,305.74l4.7,3.42a16.4,16.4,0,0,1-.33-6.07S51.32,304.06,48.75,305.74Z"/><path class="cls-2" d="M62.14,314.63c.12.4.25.77.39,1.13L69.7,321c4.61-.57,9.27-5.26,9.27-5.26s9.22-10.28,8.68-15.52-5-3.13-4.06-13.15C83.59,287.05,57.88,300.85,62.14,314.63Z"/><path class="cls-2" d="M96.84,278.63s-26.54,19.13-22.29,32.9,16.84,1.09,16.84,1.09,9.22-10.27,8.68-15.52S95.94,288.65,96.84,278.63Z"/><path class="cls-2" d="M97.79,289.26s12.38-19.13,12.26-19.21,1.44,3.2,3,7.17c2.1,5.52,4.24,12.46,2.31,13.88-3.33,2.43-4.31,21.37-16.08,23.72S97.79,289.26,97.79,289.26Z"/><path class="cls-2" d="M113,277.22c2.46-3.07,7.79-19.74,7.79-19.74s15.69,36.16-1.84,46.41S97.17,296.93,113,277.22Z"/><path class="cls-2" d="M125.32,271.38s9.88-5.11,12.56-25c0,0,18.55,13,8.26,24.69S125,291,125.32,271.38Z"/><path class="cls-2" d="M51.62,307.82l15.62,11.37c2.68-3.39,6.92-9.37,6.55-13-.54-5.25-5-3.13-4.06-13.14C69.73,293.08,57.9,299.43,51.62,307.82Z"/><path class="cls-2" d="M148.94,265.92s11-17,10.14-31.85c0,0,10.94,10.07,11.17,21.23,0,0,16.71-21.16,16.8-32.91,0,0,8.28,8.45,6.87,30.24,0,0,15.14-2.41,35.63-35.21,0,0,3.85,21.89-1.89,31.78,0,0,19.45,6.22,51-10,0,0-3.46,7-25.41,20.66,0,0,10,8.72,56.12,5.9,0,0-1.84,3.35-19.71,8.79"/><path class="cls-3" d="M254.2,290.94s-174.76-37.11-94.5,44.67c0,0,64.34,18.23,73.58,26.1s-75.61,10.16-82.55,15.63-34.33,2.43-32.85,6.13c0,0-40.38-10.65-28.84-21.76,0,0-10,10.94,6.24,35.14s258.39,80.21,258.39,80.21L746,483.22S478,418.37,562.21,355.85c0,0-257.34,33.65-127.44-43.32,0,0-103.61,41.74-205.33,3.14C229.44,315.67,175.12,291.43,254.2,290.94Z"/></g></g></svg>