<svg xmlns="http://www.w3.org/2000/svg" viewBox="0 0 101.99 101.99"><defs><style>.cls-1{fill:#6e28e1;}</style></defs><title>Asset 7</title><g id="Layer_2" data-name="Layer 2"><g id="Layer_1-2" data-name="Layer 1"><path class="cls-1" d="M42.44,1.26l3.25,10.27a1,1,0,0,0,1,.7h.11A40,40,0,0,1,51,12a39,39,0,0,1,10.83,1.54,1.26,1.26,0,0,0,.27,0A1,1,0,0,0,63,13l5-9.57L80.12,9.78l-5,9.56a1,1,0,0,0,.26,1.24,38.61,38.61,0,0,1,9.74,11.58,1,1,0,0,0,.87.52,1.12,1.12,0,0,0,.31,0L96.6,29.38l4.13,13.06L90.46,45.69a1,1,0,0,0-.7,1.07,38.39,38.39,0,0,1-1.3,15.07A1,1,0,0,0,89,63l9.56,5L92.21,80.12l-9.57-5a.92.92,0,0,0-.46-.11,1,1,0,0,0-.78.37,38.57,38.57,0,0,1-11.57,9.74,1,1,0,0,0-.48,1.18L72.6,96.6l-13.06,4.13L56.29,90.46a1,1,0,0,0-.95-.7h-.11A37.84,37.84,0,0,1,51,90a38.86,38.86,0,0,1-10.82-1.54.9.9,0,0,0-.28,0A1,1,0,0,0,39,89l-5,9.56L21.87,92.21l5-9.57a1,1,0,0,0-.27-1.24,38.69,38.69,0,0,1-9.73-11.57,1,1,0,0,0-.88-.52,1,1,0,0,0-.3,0L5.39,72.6,1.26,59.54l10.27-3.25a1,1,0,0,0,.69-1.06,38.58,38.58,0,0,1,1.31-15.07A1,1,0,0,0,13,39L3.46,34,9.78,21.87l9.56,5a1.11,1.11,0,0,0,.46.11,1,1,0,0,0,.78-.38,38.72,38.72,0,0,1,11.58-9.73,1,1,0,0,0,.47-1.18L29.38,5.39,42.44,1.26M51,80.5A29.51,29.51,0,1,0,22.87,59.89,29.37,29.37,0,0,0,51,80.5M43.1,0l-15,4.73L31.68,16A39.81,39.81,0,0,0,19.8,26L9.35,20.52,2.12,34.45l10.45,5.43a39.66,39.66,0,0,0-1.34,15.46L0,58.89l4.74,15L16,70.31A39.65,39.65,0,0,0,26,82.18L20.52,92.63l13.93,7.24,5.43-10.45a39.76,39.76,0,0,0,15.46,1.34L58.89,102l15-4.74L70.31,86A39.77,39.77,0,0,0,82.18,76l10.45,5.43,7.24-13.94L89.42,62.1a39.82,39.82,0,0,0,1.34-15.45L102,43.1l-4.74-15L86,31.68A39.93,39.93,0,0,0,76,19.8L81.47,9.35,67.53,2.12,62.1,12.57a39.71,39.71,0,0,0-15.45-1.34L43.1,0ZM51,79.5a28.51,28.51,0,1,1,8.6-1.33A28.51,28.51,0,0,1,51,79.5Z"/></g></g></svg>