<svg xmlns="http://www.w3.org/2000/svg" viewBox="0 0 342 342"><defs><style>.cls-1{fill:#6e28e1;}</style></defs><title>Asset 3</title><g id="Layer_2" data-name="Layer 2"><g id="Layer_1-2" data-name="Layer 1"><path class="cls-1" d="M177.85,1V12.15l1,0c5.16.25,10.39.76,15.53,1.52l.95.14.18-.94,2-10L210.88,5.6l-2,10-.19.94.93.23c5,1.25,10.06,2.78,14.94,4.52l.9.32.36-.88,3.89-9.38,12.65,5.24L238.5,26l-.37.88.86.41c4.69,2.22,9.32,4.7,13.76,7.37l.82.49.53-.79,5.65-8.47,11.39,7.62-5.66,8.47-.53.79.77.57c4.18,3.1,8.23,6.43,12.06,9.9l.7.64.68-.67,7.2-7.21,9.69,9.69-7.21,7.2-.67.68.64.7c3.47,3.83,6.8,7.88,9.9,12.06l.57.77.79-.53,8.47-5.66,7.62,11.39-8.47,5.65-.79.53.49.82c2.67,4.44,5.15,9.07,7.37,13.76l.41.86.88-.36,9.39-3.89,5.24,12.65-9.38,3.89-.88.36.32.9c1.74,4.88,3.27,9.91,4.52,14.94l.23.93.94-.19,10-2,2.67,13.43-10,2-.94.18.14.95c.76,5.14,1.27,10.37,1.52,15.53l0,1H341v13.7H329.85l0,1c-.25,5.16-.76,10.39-1.52,15.53l-.14.95.94.18,10,2-2.67,13.43-10-2-.94-.19-.23.93c-1.25,5-2.78,10.06-4.52,14.94l-.32.9.88.36,9.38,3.89-5.24,12.65-9.39-3.88-.88-.37-.41.86c-2.22,4.69-4.7,9.32-7.37,13.76l-.49.82.79.53,8.47,5.65-7.62,11.39-8.47-5.66-.79-.53-.57.77c-3.1,4.18-6.43,8.23-9.9,12.06l-.64.7.67.68,7.21,7.2-9.69,9.69-7.2-7.21-.68-.67-.7.64c-3.83,3.47-7.88,6.8-12.06,9.9l-.77.57.53.79,5.66,8.47-11.39,7.62-5.65-8.47-.53-.79-.82.49c-4.44,2.67-9.07,5.15-13.76,7.37l-.86.41.36.88,3.89,9.39-12.65,5.24-3.89-9.38-.36-.88-.9.32c-4.88,1.74-9.91,3.27-14.94,4.52l-.93.23.19.94,2,10-13.43,2.67-2-10-.18-.94-.95.14c-5.14.76-10.37,1.27-15.53,1.52l-1,0V341h-13.7V329.85l-1,0c-5.16-.25-10.39-.76-15.53-1.52l-.95-.14-.18.94-2,10-13.43-2.67,2-10,.19-.94-.93-.23c-5-1.25-10.06-2.78-14.94-4.52l-.9-.32-.36.88-3.89,9.38-12.65-5.24,3.89-9.39.36-.88-.86-.41c-4.69-2.22-9.32-4.7-13.76-7.37l-.82-.49-.53.79-5.65,8.47-11.39-7.62,5.66-8.47.53-.79-.77-.57c-4.18-3.1-8.23-6.43-12.06-9.9l-.7-.64-.68.67-7.2,7.21L46,286.36l7.21-7.2.67-.68-.64-.7c-3.47-3.83-6.8-7.88-9.9-12.06l-.57-.77-.79.53-8.47,5.66-7.62-11.39,8.47-5.65.79-.53-.49-.82c-2.67-4.44-5.15-9.07-7.37-13.76l-.41-.86-.88.37-9.39,3.88-5.24-12.65,9.38-3.89.88-.36-.32-.9c-1.74-4.88-3.27-9.91-4.52-14.94l-.23-.93-.94.19-10,2L2.93,197.45l10-2,.94-.18-.14-.95C13,189.19,12.44,184,12.19,178.8l0-1H1v-13.7H12.15l0-1c.25-5.16.76-10.39,1.52-15.53l.14-.95-.94-.18-10-2L5.6,131.12l10,2,.94.19.23-.93c1.25-5,2.78-10.06,4.52-14.94l.32-.9-.88-.36-9.38-3.89,5.24-12.65L26,103.51l.88.36.41-.86c2.22-4.69,4.7-9.32,7.37-13.76l.49-.82-.79-.53-8.47-5.65,7.62-11.39,8.47,5.66.79.53.57-.77c3.1-4.18,6.43-8.23,9.9-12.06l.64-.7-.67-.68L46,55.64,55.64,46l7.2,7.21.68.67.7-.64c3.83-3.47,7.88-6.8,12.06-9.9l.77-.57-.53-.79-5.66-8.47,11.39-7.62,5.65,8.47.53.79.82-.49c4.44-2.67,9.07-5.15,13.76-7.37l.86-.41L103.5,26l-3.88-9.39,12.65-5.24,3.89,9.38.36.88.9-.32c4.88-1.74,9.91-3.27,14.94-4.52l.93-.23-.19-.94-2-10,13.43-2.67,2,10,.18.94.95-.14c5.14-.76,10.37-1.27,15.53-1.52l1,0V1h13.7M171,305c73.89,0,134-60.11,134-134S244.89,37,171,37,37,97.11,37,171,97.11,305,171,305M178.85,0h-15.7V11.19q-7.92.39-15.63,1.53l-2.18-11-15.4,3.07,2.18,11c-5.11,1.27-10.13,2.8-15,4.55L112.81,10l-14.5,6,4.27,10.32q-7.12,3.38-13.85,7.41l-6.21-9.29-13,8.72,6.22,9.3q-6.31,4.7-12.14,10l-7.91-7.92L44.53,55.64l7.92,7.91q-5.28,5.82-10,12.14l-9.3-6.22-8.72,13,9.29,6.21q-4,6.72-7.41,13.85L16,98.31l-6,14.5,10.31,4.27c-1.75,4.91-3.28,9.93-4.55,15L4.82,129.94l-3.07,15.4,11,2.18q-1.14,7.71-1.53,15.63H0v15.7H11.19q.39,7.92,1.53,15.63l-11,2.18,3.07,15.4,11-2.18c1.27,5.11,2.8,10.13,4.55,15L10,229.19l6,14.5,10.32-4.27q3.38,7.13,7.41,13.85l-9.29,6.21,8.72,13,9.3-6.22q4.7,6.31,10,12.14l-7.92,7.91,11.11,11.11,7.91-7.92q5.82,5.28,12.14,10l-6.22,9.3,13,8.72,6.21-9.29q6.72,4,13.85,7.41L98.31,326l14.5,6,4.27-10.31c4.91,1.75,9.93,3.28,15,4.55l-2.18,10.95,15.4,3.07,2.18-11q7.71,1.14,15.63,1.53V342h15.7V330.81q7.92-.39,15.63-1.53l2.18,11,15.4-3.07-2.18-10.95c5.11-1.27,10.13-2.8,15-4.55L229.19,332l14.5-6-4.27-10.32q7.13-3.37,13.85-7.41l6.21,9.29,13-8.72-6.22-9.3q6.31-4.69,12.14-10l7.91,7.92,11.11-11.11-7.92-7.91q5.28-5.82,10-12.14l9.3,6.22,8.72-13-9.29-6.21q4-6.72,7.41-13.85L326,243.69l6-14.5-10.31-4.27c1.75-4.91,3.28-9.93,4.55-15l10.95,2.18,3.07-15.4-11-2.18q1.14-7.71,1.53-15.63H342v-15.7H330.81q-.39-7.92-1.53-15.63l11-2.18-3.07-15.4-10.95,2.18c-1.27-5.11-2.8-10.13-4.55-15L332,112.81l-6-14.5-10.32,4.27q-3.37-7.12-7.41-13.85l9.29-6.21-8.72-13-9.3,6.22q-4.69-6.31-10-12.14l7.92-7.91L286.36,44.53l-7.91,7.92q-5.82-5.28-12.14-10l6.22-9.3-13-8.72-6.21,9.29q-6.72-4-13.85-7.41L243.69,16l-14.5-6-4.27,10.31c-4.91-1.75-9.93-3.28-15-4.55l2.18-10.95-15.4-3.07-2.18,11q-7.71-1.14-15.63-1.53V0ZM171,304A133,133,0,1,1,304,171,133,133,0,0,1,171,304Z"/></g></g></svg>