<svg xmlns="http://www.w3.org/2000/svg" viewBox="0 0 182.35 182.35"><defs><style>.cls-1{fill:#6e28e1;}</style></defs><title>Asset 4</title><g id="Layer_2" data-name="Layer 2"><g id="Layer_1-2" data-name="Layer 1"><path class="cls-1" d="M84.87,1.13l1.5,10.24.14.91.91,0c1.44-.08,2.9-.12,4.33-.12a80.1,80.1,0,0,1,11.16.79l.89.13.22-.87,2.5-9.93,13.29,3.35-2.48,9.84-.23.88.86.31a78.8,78.8,0,0,1,14.1,6.61l.78.46.54-.72,6-8.09,11,8.18-6,8-.55.73.68.61A79.59,79.59,0,0,1,155.08,44l.54.72.77-.46,8.53-5.1,7,11.76L163.46,56l-.78.46.38.82A78,78,0,0,1,168.32,72l.22.88.9-.13,9.78-1.43,2,13.55-9.78,1.44-.9.13.05.91a78.53,78.53,0,0,1-.8,15.63l-.13.9.88.22,9.59,2.42-3.35,13.29-9.63-2.43-.88-.22-.3.85a79.68,79.68,0,0,1-6.76,14.09l-.48.78.73.54,8,6-8.18,11-8.08-6-.73-.54-.61.67a79.58,79.58,0,0,1-11.6,10.39l-.74.53.47.79,5.21,8.71-11.76,7-5.26-8.79-.46-.78-.82.38a78.64,78.64,0,0,1-14.64,5.11l-.88.21.13.9,1.5,10.24-13.55,2L96,170.89l-.13-.89-.9,0c-1.12,0-2.25.07-3.37.07a78.17,78.17,0,0,1-12-.93l-.9-.14-.22.88-2.57,10.2-13.29-3.35,2.59-10.28.22-.88-.84-.31a79.38,79.38,0,0,1-13.84-6.67l-.78-.48-.54.74L43,167.48,32,159.3l6.44-8.65.54-.73-.67-.61A79,79,0,0,1,28,137.93l-.54-.73-.78.46-9.29,5.56-7-11.76,9.33-5.57.77-.47-.38-.82A79.1,79.1,0,0,1,15,110.2l-.21-.88-.9.13L3.13,111l-2-13.55L11.91,95.9l.89-.14,0-.9a78,78,0,0,1,.75-15.26l.13-.9-.88-.22L2.23,75.83,5.58,62.54l10.49,2.65.88.22.31-.86a79.51,79.51,0,0,1,6.53-13.84l.46-.78-.72-.54L14.87,43l8.18-11,8.59,6.4.73.54.61-.68A78.94,78.94,0,0,1,44.32,27.85l.72-.54-.47-.77-5.44-9.11,11.76-7,5.4,9,.46.78.83-.39a78.82,78.82,0,0,1,14.51-5.26l.87-.22-.13-.89L71.32,3.13l13.55-2M91.1,152.68a63.39,63.39,0,0,0,6.59-.35A61.5,61.5,0,0,0,91.25,29.67a63.1,63.1,0,0,0-6.59.35A61.5,61.5,0,0,0,91.1,152.68M85.71,0,70.18,2.28,71.84,13.6a79.11,79.11,0,0,0-14.7,5.31L51.24,9l-13.48,8,6,10a79.5,79.5,0,0,0-11.48,10.5l-9.4-7L13.47,43.16l9.46,7a79.84,79.84,0,0,0-6.61,14L4.85,61.33,1,76.55l11.51,2.9a80.12,80.12,0,0,0-.76,15.46L0,96.64l2.28,15.53L14,110.44A80.11,80.11,0,0,0,19.21,125L9,131.11l8,13.48,10.16-6.07A78.9,78.9,0,0,0,37.6,150.05l-7,9.46,12.59,9.37,7-9.4a80.73,80.73,0,0,0,14,6.76L61.33,177.5l15.22,3.83,2.82-11.16a79.34,79.34,0,0,0,12.19.94c1.14,0,2.27,0,3.41-.07l1.67,11.31,15.53-2.28-1.65-11.23a79.54,79.54,0,0,0,14.83-5.17l5.76,9.65,13.48-8-5.72-9.58a80,80,0,0,0,11.75-10.52l8.89,6.61,9.37-12.59-8.83-6.57a80.39,80.39,0,0,0,6.85-14.27L177.5,121l3.83-15.22-10.56-2.66a79.39,79.39,0,0,0,.81-15.84l10.77-1.59-2.28-15.53-10.78,1.58A79.69,79.69,0,0,0,164,56.83l9.35-5.59-8-13.48-9.39,5.61a79.52,79.52,0,0,0-10.66-11.7l6.56-8.83-12.59-9.37-6.61,8.89a80.52,80.52,0,0,0-14.28-6.7L121,4.85,105.8,1l-2.75,10.9a79.73,79.73,0,0,0-11.3-.8c-1.45,0-2.92,0-4.39.12L85.71,0ZM91.1,151.68A60.5,60.5,0,0,1,84.76,31a59.2,59.2,0,0,1,6.49-.35,60.5,60.5,0,0,1,6.33,120.66,59.15,59.15,0,0,1-6.48.35Z"/></g></g></svg>