<svg xmlns="http://www.w3.org/2000/svg" viewBox="0 0 226.75 233.12"><defs><style>.cls-1,.cls-3{fill:#fff;}.cls-1,.cls-4{stroke:black;stroke-width:4px;}.cls-1,.cls-2,.cls-4{stroke-miterlimit:10;}.cls-2,.cls-4{fill:none;}.cls-2{stroke:#fff;stroke-width:2px;}</style></defs><title>Asset 5</title><g id="Layer_2" data-name="Layer 2"><g id="Layer_1-2" data-name="Layer 1"><path class="cls-1" d="M136.34,185.29c-9.1.94-27.19,2.24-45,.2a7.94,7.94,0,0,1-6.95-6.69c-1-6.59-4.31-17.91-14.82-29.23-16.25-17.5-21.5-46.5,0-74s68.5-26.25,89.25,2.25,10.75,58.75-2.25,74a63.33,63.33,0,0,0-13.37,27.3A7.9,7.9,0,0,1,136.34,185.29Z"/><rect class="cls-2" x="87.25" y="188.57" width="54.5" height="7.75" rx="3.87"/><rect class="cls-2" x="87.25" y="196.32" width="54.5" height="7.75" rx="3.87"/><rect class="cls-2" x="87.5" y="204.32" width="54.5" height="7.75" rx="3.87"/><path class="cls-2" d="M138.13,212.07s-.63,9-7.38,11.75-33.75,0-33.75,0-7.87-4-6.75-11.75"/><path class="cls-2" d="M127.75,225s-16.59,16.56-28.23-1"/><rect class="cls-3" y="113.37" width="35.5" height="7.75" rx="3.87"/><rect class="cls-3" x="191.25" y="113.37" width="35.5" height="7.75" rx="3.87"/><rect class="cls-3" x="31.43" y="178.77" width="35.5" height="7.75" rx="3.87" transform="translate(-114.74 88.27) rotate(-45)"/><rect class="cls-3" x="161.45" y="178.77" width="35.5" height="7.75" rx="3.87" transform="translate(181.63 -73.22) rotate(45)"/><rect class="cls-3" x="96.75" y="13.87" width="35.5" height="7.75" rx="3.87" transform="translate(132.25 -96.75) rotate(90)"/><rect class="cls-3" x="166.72" y="45.31" width="35.5" height="7.75" rx="3.87" transform="translate(349.68 -46.48) rotate(135)"/><rect class="cls-3" x="26.82" y="44.13" width="35.5" height="7.75" rx="3.87" transform="translate(47 -17.45) rotate(45)"/><path class="cls-4" d="M107.25,185.32l-4.5-50.25s-.75-9.25-6.5-11.25-11.5,1.75-11.5,8.75,4.78,8.25,5.39,8.5,46.11.25,46.11.25,8.5-2.5,5.75-10.25-9.75-6-9.75-6-7.25.25-8,10.5-4,49.75-4,49.75"/></g></g></svg>