<svg xmlns="http://www.w3.org/2000/svg" viewBox="0 0 204.82 204.82"><defs><style>.cls-1,.cls-2{fill:black;}.cls-1,.cls-4{stroke:#fff;stroke-linecap:round;stroke-width:3px;}.cls-1{stroke-linejoin:round;}.cls-3,.cls-4{fill:#fff;}.cls-4{stroke-miterlimit:10;}</style></defs><title>Asset 3</title><g id="Layer_2" data-name="Layer 2"><g id="Layer_1-2" data-name="Layer 1"><polyline class="cls-1" points="1.5 203.32 37.74 182.62 190.1 30.26 174.56 14.72 22.2 167.07 1.5 203.32"/><polygon class="cls-2" points="21.75 191.75 13.07 183.06 1.5 203.32 21.75 191.75"/><path class="cls-2" d="M21.75,191.75s-1.34-7.23-8.68-8.69"/><path class="cls-3" d="M21.26,191.84a11.45,11.45,0,0,0-1-2.94,11,11,0,0,0-1.75-2.63,9.52,9.52,0,0,0-2.46-2,11.8,11.8,0,0,0-3-1.21,12,12,0,0,1,3.1,1,9.94,9.94,0,0,1,2.71,1.89,12.16,12.16,0,0,1,2.06,2.61,12.68,12.68,0,0,1,1.3,3.12Z"/><path class="cls-3" d="M22.2,167.07a20.42,20.42,0,0,1,3.67-1.71,8.35,8.35,0,0,1,2-.44,2.75,2.75,0,0,1,2,.47,3.14,3.14,0,0,1,.9,1.86,20.3,20.3,0,0,1,.22,2,11.34,11.34,0,0,0,.32,1.95,3.44,3.44,0,0,0,1,1.57,5.5,5.5,0,0,0,3.68.74,17.45,17.45,0,0,1,2.06-.19,2,2,0,0,1,1.13.38,2,2,0,0,1,.68,1A5.2,5.2,0,0,1,40,176.9a14,14,0,0,1-.41,2,27.15,27.15,0,0,1-1.38,3.88l-.9-.43a26.62,26.62,0,0,0,1.44-3.69,12.86,12.86,0,0,0,.44-1.91,4.53,4.53,0,0,0,0-1.84A1.21,1.21,0,0,0,38,174c-.55,0-1.29.09-2,.13a6,6,0,0,1-4-1c-2.31-2.2-.56-5.59-2.27-7.6a2.48,2.48,0,0,0-1.83-.47,7.87,7.87,0,0,0-2,.37A20.13,20.13,0,0,0,22.2,167.07Z"/><line class="cls-2" x1="203.12" y1="11.04" x2="31.45" y2="182.62"/><path class="cls-3" d="M203.12,11c-6.86,7.45-13.83,14.78-20.75,22.16L160.91,54.64,118,97.54,75.07,140.43,53.61,161.88c-7.39,6.91-14.72,13.87-22.16,20.74,6.86-7.44,13.83-14.77,20.75-22.16L73.66,139l42.92-42.89,42.91-42.89L181,31.78C188.34,24.86,195.67,17.89,203.12,11Z"/><line class="cls-2" x1="191.72" y1="4.18" x2="20.04" y2="175.75"/><path class="cls-3" d="M191.72,4.18C184.86,11.62,177.89,19,171,26.34L149.51,47.78,106.59,90.67,63.67,133.56,42.21,155c-7.39,6.91-14.73,13.88-22.17,20.74,6.87-7.44,13.84-14.77,20.76-22.16l21.46-21.44,42.91-42.9,42.92-42.89,21.46-21.45C176.93,18,184.27,11,191.72,4.18Z"/><path class="cls-4" d="M184.71,3.73h10.76a5.61,5.61,0,0,1,5.61,5.61V25.71a0,0,0,0,1,0,0h-22a0,0,0,0,1,0,0V9.34a5.61,5.61,0,0,1,5.61-5.61Z" transform="translate(66.09 -130.11) rotate(45)"/><path class="cls-3" d="M13.07,183.06c7.34,1.46,8.68,8.69,8.68,8.69l16-9.13s4.55-9.64-.44-8.9c-8.6,1.27-5.57-5.09-7.12-7.77s-8,1.12-8,1.12Z"/><rect class="cls-3" x="102.06" y="-11.84" width="12.17" height="217.4" transform="translate(100.17 -48.1) rotate(45)"/></g></g></svg>